# xmcd CD database file
# Copyright (C) 1993-1998 Ti Kan
#
# Track frame offsets:
#  150
#  10714
#  21663
#  34057
#  42565
#  52954
#
# Disc length: 863 seconds
#
# Revision: 1
# Processed by: cddbd v1.4b41PL1 Copyright (c) Steve Scherf et al.
# Submitted via: CDWizzard Release:4.35
#
DISCID=47035d06
DTITLE=Sola - UnderShakers
DYEAR=1900
DGENRE=
TTITLE0=Sola,
TTITLE1=Send Me a Postcard
TTITLE2=Reflections
TTITLE3=Al reves.
TTITLE4=Big Dog
TTITLE5=A tu vera.
EXTD=
EXTT0=
EXTT1=
EXTT2=
EXTT3=
EXTT4=
EXTT5=
PLAYORDER=
